<svg width="70" height="23" viewBox="0 0 70 23" fill="none" xmlns="http://www.w3.org/2000/svg">
<path d="M15.8533 0.247146V2.25521C15.8533 2.85247 15.7862 3.33647 15.652 3.70719C15.5178 4.06761 15.3888 4.37139 15.265 4.61854L7.43121 21.1773C7.21447 21.6098 6.90484 21.9805 6.50231 22.2895C6.11011 22.5984 5.58373 22.7529 4.92318 22.7529H1.42432L9.4748 6.64204C9.71218 6.20954 9.94957 5.81822 10.187 5.4681C10.4347 5.10768 10.7082 4.76785 11.0075 4.44862H1.08372C0.939221 4.44862 0.799885 4.42288 0.66571 4.37139C0.541857 4.3096 0.428323 4.23237 0.325112 4.13969C0.232222 4.03671 0.154815 3.92344 0.0928882 3.79986C0.0309615 3.666 0 3.53213 0 3.39825V0.247146H15.8533Z" fill="#FF6F00"/>
<path d="M25.6866 19.2156C26.182 19.2156 26.6413 19.1229 27.0644 18.9375C27.4979 18.7522 27.8695 18.4999 28.1791 18.1807C28.4887 17.8511 28.7313 17.4701 28.9067 17.0376C29.0925 16.5948 29.1854 16.116 29.1854 15.6011C29.1854 15.0244 29.0977 14.5095 28.9222 14.0564C28.7571 13.6033 28.5197 13.2223 28.2101 12.9134C27.9004 12.6044 27.5237 12.3676 27.0799 12.2028C26.6464 12.0381 26.1613 11.9557 25.6246 11.9557C25.1395 11.9557 24.6957 12.0432 24.2932 12.2183C23.8907 12.383 23.5398 12.625 23.2404 12.9443C22.9515 13.2635 22.7244 13.6445 22.5593 14.0873C22.3941 14.5301 22.3115 15.0296 22.3115 15.5856C22.3115 16.1417 22.3786 16.6411 22.5128 17.084C22.647 17.5268 22.8534 17.9078 23.1321 18.227C23.4107 18.5462 23.7617 18.7934 24.1848 18.9684C24.608 19.1332 25.1086 19.2156 25.6866 19.2156ZM24.9125 8.89725C25.6349 8.62951 26.44 8.49564 27.3276 8.49564C28.143 8.49564 28.948 8.62951 29.7428 8.89725C30.5375 9.16499 31.2496 9.5769 31.8792 10.133C32.5088 10.6891 33.0146 11.3944 33.3964 12.2492C33.7886 13.0936 33.9847 14.0925 33.9847 15.2458C33.9847 16.2962 33.7886 17.2951 33.3964 18.2424C33.0042 19.1795 32.4469 20.0034 31.7244 20.7139C31.0123 21.4141 30.1504 21.9702 29.139 22.3821C28.1275 22.794 27.0077 23 25.7794 23C24.5203 23 23.3901 22.8043 22.3889 22.413C21.3878 22.0114 20.5363 21.4553 19.8345 20.7448C19.143 20.0343 18.6114 19.1847 18.2399 18.1961C17.8786 17.2075 17.698 16.1211 17.698 14.9369C17.698 12.7229 18.5546 10.4728 20.268 8.1867L25.346 1.34386C25.5833 1.04522 25.9239 0.787777 26.3677 0.571524C26.8219 0.355272 27.3379 0.247146 27.9159 0.247146H32.1889L25.5008 8.2176L24.9125 8.89725Z" fill="#FF6F00"/>
<path d="M52.0388 11.4923C52.0388 13.4591 51.8272 15.1634 51.4041 16.6051C50.9809 18.0468 50.3926 19.2413 49.6391 20.1887C48.896 21.1361 48.0084 21.8415 46.9763 22.3049C45.9545 22.7683 44.845 23 43.6477 23C42.4505 23 41.341 22.7683 40.3192 22.3049C39.3077 21.8415 38.4304 21.1361 37.6873 20.1887C36.9442 19.2413 36.361 18.0468 35.9378 16.6051C35.525 15.1634 35.3186 13.4591 35.3186 11.4923C35.3186 9.52541 35.525 7.82113 35.9378 6.37945C36.361 4.93777 36.9442 3.74323 37.6873 2.79584C38.4304 1.84844 39.3077 1.1482 40.3192 0.695097C41.341 0.231699 42.4505 0 43.6477 0C44.845 0 45.9545 0.231699 46.9763 0.695097C48.0084 1.1482 48.896 1.84844 49.6391 2.79584C50.3926 3.74323 50.9809 4.93777 51.4041 6.37945C51.8272 7.82113 52.0388 9.52541 52.0388 11.4923ZM47.0847 11.4923C47.0847 9.93732 46.9866 8.66555 46.7905 7.67696C46.5944 6.67808 46.3312 5.89546 46.001 5.32908C45.681 4.7627 45.3146 4.37654 44.9018 4.17058C44.4889 3.95433 44.0709 3.84621 43.6477 3.84621C43.2246 3.84621 42.8066 3.95433 42.3937 4.17058C41.9912 4.37654 41.63 4.7627 41.31 5.32908C41.0004 5.89546 40.7475 6.67808 40.5514 7.67696C40.3656 8.66555 40.2727 9.93732 40.2727 11.4923C40.2727 13.0575 40.3656 14.3345 40.5514 15.323C40.7475 16.3116 41.0004 17.0943 41.31 17.6709C41.63 18.2373 41.9912 18.6286 42.3937 18.8449C42.8066 19.0508 43.2246 19.1538 43.6477 19.1538C44.0709 19.1538 44.4889 19.0508 44.9018 18.8449C45.3146 18.6286 45.681 18.2373 46.001 17.6709C46.3312 17.0943 46.5944 16.3116 46.7905 15.323C46.9866 14.3345 47.0847 13.0575 47.0847 11.4923Z" fill="#FF6F00"/>
<path d="M70 11.4923C70 13.4591 69.7884 15.1634 69.3653 16.6051C68.9421 18.0468 68.3538 19.2413 67.6003 20.1887C66.8572 21.1361 65.9696 21.8415 64.9375 22.3049C63.9157 22.7683 62.8062 23 61.6089 23C60.4117 23 59.3022 22.7683 58.2804 22.3049C57.2689 21.8415 56.3916 21.1361 55.6485 20.1887C54.9053 19.2413 54.3222 18.0468 53.899 16.6051C53.4862 15.1634 53.2798 13.4591 53.2798 11.4923C53.2798 9.52541 53.4862 7.82113 53.899 6.37945C54.3222 4.93777 54.9053 3.74323 55.6485 2.79584C56.3916 1.84844 57.2689 1.1482 58.2804 0.695097C59.3022 0.231699 60.4117 0 61.6089 0C62.8062 0 63.9157 0.231699 64.9375 0.695097C65.9696 1.1482 66.8572 1.84844 67.6003 2.79584C68.3538 3.74323 68.9421 4.93777 69.3653 6.37945C69.7884 7.82113 70 9.52541 70 11.4923ZM65.0459 11.4923C65.0459 9.93732 64.9478 8.66555 64.7517 7.67696C64.5556 6.67808 64.2924 5.89546 63.9621 5.32908C63.6422 4.7627 63.2758 4.37654 62.8629 4.17058C62.4501 3.95433 62.0321 3.84621 61.6089 3.84621C61.1858 3.84621 60.7678 3.95433 60.3549 4.17058C59.9524 4.37654 59.5911 4.7627 59.2712 5.32908C58.9615 5.89546 58.7087 6.67808 58.5126 7.67696C58.3268 8.66555 58.2339 9.93732 58.2339 11.4923C58.2339 13.0575 58.3268 14.3345 58.5126 15.323C58.7087 16.3116 58.9615 17.0943 59.2712 17.6709C59.5911 18.2373 59.9524 18.6286 60.3549 18.8449C60.7678 19.0508 61.1858 19.1538 61.6089 19.1538C62.0321 19.1538 62.4501 19.0508 62.8629 18.8449C63.2758 18.6286 63.6422 18.2373 63.9621 17.6709C64.2924 17.0943 64.5556 16.3116 64.7517 15.323C64.9478 14.3345 65.0459 13.0575 65.0459 11.4923Z" fill="#FF6F00"/>
</svg>
