<svg width="16" height="16" viewBox="0 0 16 16" fill="none" xmlns="http://www.w3.org/2000/svg">
<path fill-rule="evenodd" clip-rule="evenodd" d="M7.99992 15C11.6759 15 14.6665 12.0093 14.6665 8.33335C14.6665 4.65754 11.6759 1.66669 7.99992 1.66669C4.32392 1.66669 1.33325 4.65754 1.33325 8.33335C1.33325 12.0093 4.32392 15 7.99992 15ZM11.7686 6.70651L7.50495 10.9702C7.37099 11.1041 7.1893 11.1795 6.99987 11.1795C6.81044 11.1795 6.62875 11.1041 6.49482 10.9702L4.23113 8.70653C3.95236 8.42775 3.95228 7.9752 4.23121 7.69648C4.51019 7.41773 4.96235 7.41765 5.24126 7.69653L6.99987 9.45499L10.7584 5.69657C11.0374 5.41769 11.4896 5.41774 11.7685 5.69652C12.0474 5.97524 12.0474 6.42771 11.7686 6.70651Z" fill="#E31E25"/>
</svg>
