<svg width="24" height="24" viewBox="0 0 24 24" fill="none" xmlns="http://www.w3.org/2000/svg">
<path d="M21.6794 24C19.0434 24 16.4246 23.3449 13.823 22.0347C11.2206 20.7254 8.89675 19.0088 6.85152 16.8849C4.80629 14.7611 3.15329 12.354 1.89252 9.66372C0.630838 6.97346 0 4.2478 0 1.48673C0 1.06195 0.136347 0.707969 0.409044 0.424783C0.681742 0.141597 1.02261 0 1.43166 0H5.863C6.22659 0 6.53883 0.111858 6.79971 0.335575C7.0615 0.560236 7.22648 0.849552 7.29466 1.20353L8.07867 5.38054C8.12412 5.73452 8.11275 6.0531 8.04458 6.33629C7.9764 6.61947 7.82869 6.86725 7.60144 7.07964L4.49951 10.2655C5.56757 12.1534 6.84561 13.8643 8.33363 15.3982C9.82256 16.9322 11.5101 18.2655 13.3963 19.3982L16.43 16.2124C16.6573 15.9764 16.9245 15.8112 17.2318 15.7168C17.5381 15.6224 17.8503 15.5988 18.1685 15.646L21.9522 16.4602C22.293 16.531 22.5716 16.6962 22.788 16.9557C23.0034 17.2153 23.1111 17.5339 23.1111 17.9115V22.5133C23.1111 22.938 22.9748 23.292 22.7021 23.5752C22.4294 23.8584 22.0885 24 21.6794 24Z" fill="#FF6F00"/>
</svg>
